PathFileType	4	(X/Y/Z)	Kaydara																																																																																																																																																																																																																												
DataRate	CameraRate	NumFrames	NumMarkers	Units	OrigDataRate	OrigDataStartFrame	OrigNumFrames																																																																																																																																																																																																																								
60	60	4	74	mm	60	1734	181																																																																																																																																																																																																																								
Frame#	Time	N_lasi			N_rasi			N_rpsi			N_lpsi			N_fneck			N_bneck			N_fhead			N_rhead			N_lhead			N_rshld			N_relbtop			N_relbext			N_relblow			N_rwrext			N_rwrtop			N_rwrlow			N_lshld			N_lelblow			N_lelbtop			N_lwrext			N_lwrtop			N_lwrlow			N_rtopleg			N_ltopleg			N_rkneefr			N_rkneebk			N_rkneeis			N_lkneefr			N_lknssbk			N_lkneeis			N_rankfr			N_rankis			N_rankbk			N_lankfr			N_lankbk			N_lankis			D_lasi			D_rasi			D_lpsi			D_fneck			D_bneck			D_fhead			D_rhead			D_lhead			D_rshld			D_relbtop			D_relbext			D_relblow			D_rwrext			D_rwrtop			D_rwrlow			D_lshld			D_lelbext			D_lelblow			D_lelbtop			D_lwrext			D_lwrtop			D_lwrlow			D_rtopleg			D_ltopleg			D_rkneefr			D_rkneebk			D_rkneeis			D_lkneefr			D_lknssbk			D_lkneeis			D_rankfr			D_rankis			D_rankbk			D_lankfr			D_lankbk			D_lankis			D_rpsi			N_lelbext		
		X1	Y1	Z1	X2	Y2	Z2	X3	Y3	Z3	X4	Y4	Z4	X5	Y5	Z5	X6	Y6	Z6	X7	Y7	Z7	X8	Y8	Z8	X9	Y9	Z9	X10	Y10	Z10	X11	Y11	Z11	X12	Y12	Z12	X13	Y13	Z13	X14	Y14	Z14	X15	Y15	Z15	X16	Y16	Z16	X17	Y17	Z17	X18	Y18	Z18	X19	Y19	Z19	X20	Y20	Z20	X21	Y21	Z21	X22	Y22	Z22	X23	Y23	Z23	X24	Y24	Z24	X25	Y25	Z25	X26	Y26	Z26	X27	Y27	Z27	X28	Y28	Z28	X29	Y29	Z29	X30	Y30	Z30	X31	Y31	Z31	X32	Y32	Z32	X33	Y33	Z33	X34	Y34	Z34	X35	Y35	Z35	X36	Y36	Z36	X37	Y37	Z37	X38	Y38	Z38	X39	Y39	Z39	X40	Y40	Z40	X41	Y41	Z41	X42	Y42	Z42	X43	Y43	Z43	X44	Y44	Z44	X45	Y45	Z45	X46	Y46	Z46	X47	Y47	Z47	X48	Y48	Z48	X49	Y49	Z49	X50	Y50	Z50	X51	Y51	Z51	X52	Y52	Z52	X53	Y53	Z53	X54	Y54	Z54	X55	Y55	Z55	X56	Y56	Z56	X57	Y57	Z57	X58	Y58	Z58	X59	Y59	Z59	X60	Y60	Z60	X61	Y61	Z61	X62	Y62	Z62	X63	Y63	Z63	X64	Y64	Z64	X65	Y65	Z65	X66	Y66	Z66	X67	Y67	Z67	X68	Y68	Z68	X69	Y69	Z69	X70	Y70	Z70	X71	Y71	Z71	X72	Y72	Z72	X73	Y73	Z73	X74	Y74	Z74
																																																																																																																																																																																																																															
114	28.883	-531.07796	1238.17329	-87.71399	-506.95004	1260.03967	-317.10289	-243.63018	1230.8049	-359.2968	-272.22097	1223.27637	-9.33448	-402.22097	1613.27637	-188.33448	-242.00706	1666.53	-187.27303	-436.86871	1806.16165	-197.83836	-244.84615	1770.79147	-252.09894	-296.7654	1776.21933	-105.11733	-243.53643	1653.49594	-345.15053	-292.11599	1688.0304	-616.43024	-377.5436	1684.89822	-588.12775	-304.5446	1748.37448	-547.78278	-446.66904	1999.29764	-711.67168	-412.22424	2025.44479	-688.72574	-410.39585	2014.50363	-641.97861	-263.46636	1618.11966	5.36228	-285.61634	1600.76538	278.38879	-241.71263	1525.74387	284.2556	-255.76315	1569.09103	600.03639	-296.16837	1590.49545	610.47256	-323.6179	1544.45358	601.90342	-403.95115	1059.07379	-449.38881	-373.09158	1015.52628	41.88044	-430.19363	562.37743	-262.22391	-323.42712	578.14686	-329.9374	-368.42026	565.11383	-168.83911	-381.32504	539.68025	-103.6175	-255.47302	555.99472	-43.73172	-256.33953	546.97918	-193.11707	-297.0327	139.16338	-271.62504	-298.91094	153.98686	-191.48417	-216.9556	141.28866	-216.50198	-332.687	192.68888	-120.41601	-259.80139	185.60705	-77.49362	-295.80139	164.60705	-161.49362	-460.99049	1037.32773	1742.06345	-425.88795	1056.39427	1455.29678	-261.90044	1130.84435	1744.68063	-411.76392	1568.22449	1589.29245	-270.82956	1587.47879	1597.07336	-427.71633	1789.15359	1591.95313	-271.87296	1724.22531	1517.46872	-283.68591	1720.43869	1671.67618	-326.76151	1562.77466	1429.7406	-402.58316	1448.5881	1148.48152	-444.21818	1485.55893	1199.15314	-347.02511	1503.82813	1188.77129	-460.46192	1732.86407	1163.03215	-403.12534	1741.02615	1152.57729	-393.84716	1723.94241	1203.11943	-318.31114	1563.89481	1787.30347	-410.04719	1470.77988	2046.0199	-323.80035	1535.12314	2037.60239	-331.14079	1455.9462	2049.75998	-353.03158	1517.61063	2301.00372	-386.05278	1545.49362	2292.31873	-424.27513	1514.31061	2280.13107	-332.71145	1004.70985	1408.06534	-320.12146	1009.63493	1808.423	-374.74838	455.30666	1449.7467	-274.82185	490.81665	1422.06985	-282.73464	458.30173	1542.94083	-358.31654	448.18283	1770.75531	-245.63608	485.7737	1786.28433	-317.46187	443.66539	1679.02008	-323.9922	130.18331	1417.66541	-294.98003	126.54928	1482.46948	-243.61387	127.8476	1417.95563	-323.25119	134.946	1792.2612	-250.36564	124.83428	1806.19949	-293.98716	123.97289	1732.8241	-235.10069	1145.04433	1527.05475	-331.10497	1508.14529	285.83452
115	28.9	-531.05675	1238.30223	-88.02157	-506.79092	1259.9675	-317.41522	-243.51698	1230.4303	-359.30687	-272.27629	1223.25378	-9.43499	-402.27629	1613.25378	-188.43499	-241.74192	1666.5657	-187.28977	-436.77761	1806.18271	-198.53085	-244.66408	1770.728	-252.35386	-297.15784	1776.2323	-105.12817	-243.03953	1653.41217	-345.21896	-289.73858	1687.27798	-616.66756	-375.35763	1681.78391	-590.34225	-304.97124	1747.2319	-548.6779	-450.26447	1993.01117	-717.73277	-418.90884	2020.70358	-692.05734	-420.44029	2009.207	-645.34081	-263.02731	1617.82974	5.4873	-285.49103	1600.44083	278.19042	-242.28212	1524.95224	284.36016	-258.30816	1568.99811	600.3891	-298.73337	1590.93658	610.15285	-326.52912	1545.25558	601.32942	-404.11552	1058.70079	-449.37752	-373.14911	1015.5378	41.83504	-430.19287	562.3658	-262.28466	-323.47271	578.14972	-330.05646	-368.4478	565.14172	-168.85967	-381.35765	539.85577	-103.6531	-255.47787	555.98503	-43.87829	-256.32202	547.00226	-193.24766	-296.99265	139.17168	-271.6654	-298.88802	153.99903	-191.56626	-216.90111	141.32268	-216.61524	-332.77637	192.67975	-120.53399	-259.86683	185.58563	-77.59193	-295.86683	164.58563	-161.59193	-461.03436	1037.32849	1742.06573	-425.89828	1056.33148	1455.22827	-261.95675	1130.85381	1744.71176	-411.88206	1568.11401	1589.21463	-270.91522	1587.53586	1596.9252	-427.90459	1789.04495	1591.81931	-272.14512	1724.25919	1517.27585	-283.88752	1720.60242	1671.5274	-326.85661	1562.75803	1429.64218	-402.66815	1448.51349	1148.43239	-444.32697	1485.41763	1199.09744	-347.20303	1503.76984	1188.76343	-460.75264	1732.77084	1163.16864	-403.45329	1740.9343	1152.80571	-394.40174	1723.79761	1203.61252	-318.4066	1563.95554	1787.16278	-410.15472	1470.86288	2045.84961	-323.97575	1535.16006	2037.36984	-331.29311	1456.06079	2049.7084	-353.28651	1517.69287	2300.84061	-386.37783	1545.61722	2292.28943	-424.66888	1514.45007	2279.94247	-332.6997	1004.72885	1408.06671	-320.14133	1009.63852	1808.46451	-374.74754	455.30514	1449.75662	-274.79502	490.82371	1422.08832	-282.68749	458.31875	1543.04504	-358.32085	448.20316	1770.79773	-245.64636	485.81161	1786.30951	-317.46565	443.67928	1679.02603	-323.96019	130.1975	1417.64404	-294.9967	126.559	1482.46246	-243.61029	127.82063	1418.02368	-323.24986	134.94107	1792.26013	-250.36446	124.83424	1806.19934	-293.97491	123.96861	1732.84088	-235.13281	1144.83589	1527.00958	-331.59172	1508.10669	285.49282
116	28.917	-531.04198	1238.42079	-88.36061	-506.58108	1259.78699	-317.68719	-243.30299	1229.99596	-359.38957	-272.28832	1223.19519	-9.61303	-402.28832	1613.19519	-188.61303	-241.34003	1666.61911	-187.24102	-436.63986	1806.19553	-199.01279	-244.47678	1770.68939	-252.47932	-297.15317	1776.36124	-105.41338	-242.92028	1653.33191	-345.14965	-287.65671	1686.2706	-616.7701	-373.44765	1678.34381	-592.48425	-305.5904	1745.85129	-549.87507	-453.16803	1986.78436	-724.49326	-426.12701	2015.07339	-695.74295	-431.67629	2002.46216	-649.51767	-262.82064	1617.64679	5.6243	-285.16926	1599.90906	278.10497	-243.2349	1524.05228	284.57754	-261.4678	1569.16809	600.77843	-301.77608	1591.61591	609.85088	-329.88785	1546.10077	600.55866	-404.25041	1058.21976	-449.47346	-373.01998	1015.57816	41.55286	-430.20622	562.37499	-262.3226	-323.51097	578.16875	-330.18394	-368.31322	565.16674	-168.99319	-381.36223	540.1223	-103.70297	-255.46902	556.02455	-43.98255	-256.31435	547.03651	-193.3453	-296.97918	139.18474	-271.69184	-298.85584	154.03093	-191.66624	-216.84593	141.35022	-216.69979	-332.76299	192.69005	-120.60097	-259.87499	185.64016	-77.66618	-295.87499	164.64016	-161.66618	-461.0989	1037.27463	1742.04315	-425.88657	1056.27548	1455.18066	-261.99213	1130.88333	1744.71558	-411.99837	1568.0307	1589.09958	-270.96018	1587.59857	1596.80511	-428.17482	1788.94379	1591.68854	-272.39502	1724.31641	1517.08115	-284.08371	1720.7254	1671.40411	-326.98715	1562.74551	1429.59869	-402.70905	1448.40698	1148.40981	-444.34101	1485.19882	1199.07692	-347.36103	1503.70804	1188.70155	-461.16386	1732.5679	1163.34984	-403.73108	1740.95886	1153.4491	-394.59656	1723.59055	1203.87436	-318.48804	1563.9949	1787.0813	-410.31338	1470.87265	2045.69443	-324.13265	1535.18097	2037.08832	-331.41346	1456.13052	2049.67255	-353.66936	1517.74948	2300.53375	-386.66618	1545.6691	2292.20749	-425.17418	1514.63516	2279.69238	-332.68215	1004.72031	1408.09235	-320.13237	1009.64035	1808.45383	-374.73335	455.3038	1449.71893	-274.79044	490.82424	1422.07397	-282.68473	458.32882	1543.05344	-358.3329	448.19073	1770.81696	-245.63053	485.80559	1786.29578	-317.48295	443.69041	1679.03076	-323.92975	130.20058	1417.62375	-294.97641	126.54648	1482.46872	-243.61868	127.82964	1418.03711	-323.30639	134.92926	1792.20139	-250.38685	124.84284	1806.21857	-293.96063	123.97206	1732.81647	-235.236	1145.46249	1527.28577	-332.26067	1508.05969	285.19894
117	28.933	-530.99648	1238.4845	-88.73734	-506.37177	1259.48883	-317.97728	-243.03268	1229.53636	-359.46503	-272.33198	1223.13889	-9.70169	-402.33198	1613.13889	-188.70169	-241.08162	1666.49506	-187.12193	-436.49456	1806.10199	-199.45856	-244.16864	1770.68481	-252.53849	-297.15342	1776.45813	-105.58148	-242.38157	1653.2637	-345.01446	-285.44231	1684.99771	-616.92589	-371.418	1674.59442	-594.68979	-306.66851	1744.10004	-550.97015	-457.21664	1979.01962	-731.6021	-434.27193	2008.41095	-700.2964	-443.34686	1994.18854	-654.94789	-262.34209	1617.16248	5.98053	-284.87003	1599.44672	277.94052	-243.97816	1523.08105	284.71832	-264.7241	1569.42856	601.47766	-305.03666	1592.51114	609.45145	-334.01478	1547.54486	599.8489	-404.51881	1057.5843	-449.52766	-372.97752	1015.66063	41.11773	-430.33974	562.37835	-262.34915	-323.66745	578.18317	-330.29274	-368.3213	565.18402	-169.058	-381.35578	540.32261	-103.74922	-255.4809	556.0791	-44.09223	-256.31088	547.06799	-193.47012	-296.98727	139.17286	-271.70969	-298.87428	154.04083	-191.73923	-216.83825	141.38237	-216.79905	-332.78557	192.6845	-120.67504	-259.91379	185.63622	-77.71988	-295.91379	164.63622	-161.71988	-461.09264	1037.28165	1742.07611	-425.93678	1056.21544	1455.2095	-262.033	1130.88196	1744.77844	-412.07336	1567.91946	1589.03244	-271.03298	1587.63611	1596.69327	-428.39481	1788.80188	1591.56738	-272.61707	1724.35806	1516.81946	-284.24067	1720.79407	1671.25381	-327.11529	1562.75421	1429.48395	-402.62718	1448.26584	1148.18214	-444.44344	1484.96078	1198.96194	-347.45628	1503.61252	1188.67691	-461.6293	1732.24213	1163.48801	-404.27937	1740.59204	1153.47816	-395.03914	1723.43979	1204.29741	-318.55778	1564.04343	1786.9725	-410.45948	1470.87509	2045.49667	-324.42478	1535.23438	2037.05063	-331.50059	1456.16913	2049.62234	-353.95218	1517.80594	2299.98535	-386.96617	1545.76385	2292.04681	-425.40279	1514.60999	2279.52057	-332.72839	1004.69986	1408.1636	-320.1783	1009.65225	1808.50906	-374.67743	455.35259	1449.64844	-274.76851	490.81463	1422.10342	-282.64254	458.32592	1543.1192	-358.32825	448.20232	1770.78003	-245.63576	485.80673	1786.33499	-317.44909	443.71216	1678.96835	-323.93539	130.19612	1417.64877	-294.98749	126.55457	1482.46735	-243.63169	127.8323	1418.05191	-323.33218	134.90654	1792.13242	-250.39734	124.83866	1806.21964	-293.95681	123.97131	1732.81372	-235.33024	1145.49789	1527.36755	-333.06408	1507.95441	284.83845
